<svg aria-hidden="true" style="position: absolute; width: 0; height: 0; overflow: hidden;" version="1.1" xmlns="http://www.w3.org/2000/svg" xmlns:xlink="http://www.w3.org/1999/xlink">
<defs>
<symbol id="icon-linkedin-icon" viewBox="0 0 32 32">
<path d="M8.56 30.933v-19.933h-6.2v19.933h6.2zM5.427 8.333c2 0 3.6-1.667 3.6-3.667 0-1.933-1.6-3.533-3.6-3.533-1.933 0-3.533 1.6-3.533 3.533 0 2 1.6 3.667 3.533 3.667zM31.694 30.933h0.067v-10.933c0-5.333-1.2-9.467-7.467-9.467-3 0-5 1.667-5.867 3.2h-0.067v-2.733h-5.933v19.933h6.2v-9.867c0-2.6 0.467-5.067 3.667-5.067s3.267 2.933 3.267 5.267v9.667h6.133z"></path>
</symbol>
<symbol id="icon-twitter-icon" viewBox="0 0 42 32">
<path d="M37.493 8c0 0.385 0 0.692 0 1.077 0 10.692-8.077 22.923-22.923 22.923-4.615 0-8.846-1.308-12.385-3.616 0.615 0.077 1.231 0.154 1.923 0.154 3.769 0 7.231-1.308 10-3.462-3.538-0.077-6.538-2.385-7.538-5.615 0.538 0.077 1 0.154 1.538 0.154 0.692 0 1.462-0.154 2.077-0.308-3.692-0.769-6.462-4-6.462-7.923v-0.077c1.077 0.615 2.385 0.923 3.692 1-2.231-1.462-3.615-3.923-3.615-6.692 0-1.538 0.385-2.923 1.077-4.077 4 4.846 10 8.077 16.692 8.462-0.154-0.615-0.231-1.231-0.231-1.846 0-4.462 3.615-8.077 8.077-8.077 2.308 0 4.384 0.923 5.923 2.538 1.769-0.385 3.538-1.077 5.077-2-0.615 1.923-1.846 3.462-3.538 4.462 1.615-0.154 3.231-0.615 4.615-1.231-1.077 1.615-2.462 3-4 4.154z"></path>
</symbol>
<symbol id="icon-facebook-icon" viewBox="0 0 20 32">
<path d="M17.213 18h-4.688v14h-6.25v-14h-5.125v-5.75h5.125v-4.438c0-5 3-7.813 7.563-7.813 2.188 0 4.5 0.438 4.5 0.438v4.938h-2.563c-2.5 0-3.25 1.5-3.25 3.125v3.75h5.563l-0.875 5.75z"></path>
</symbol>
<symbol id="icon-instagram-btn" viewBox="0 0 33 32">
<path fill="none" stroke="#5c8692" style="stroke: var(--color1, #5c8692)" stroke-linejoin="miter" stroke-linecap="butt" stroke-miterlimit="4" stroke-width="1.1636" d="M0.873 0.582h30.836v30.836h-30.836v-30.836z"></path>
<path fill="#fff" style="fill: var(--color2, #fff)" d="M16.582 12.572c1.36 0 2.483 1.123 2.483 2.483 0 1.382-1.123 2.483-2.483 2.483-1.382 0-2.483-1.101-2.483-2.483 0-1.36 1.101-2.483 2.483-2.483zM16.582 16.674c0.885 0 1.598-0.713 1.598-1.619 0-0.885-0.712-1.598-1.598-1.598-0.907 0-1.619 0.713-1.619 1.598 0 0.907 0.734 1.619 1.619 1.619zM19.734 12.485c0 0.324-0.259 0.583-0.583 0.583s-0.583-0.259-0.583-0.583c0-0.324 0.259-0.583 0.583-0.583s0.583 0.259 0.583 0.583zM21.375 13.068c0.043 0.799 0.043 3.195 0 3.994-0.043 0.777-0.216 1.447-0.777 2.030-0.561 0.561-1.252 0.734-2.029 0.777-0.799 0.043-3.195 0.043-3.994 0-0.777-0.043-1.447-0.216-2.030-0.777-0.561-0.583-0.734-1.252-0.777-2.030-0.043-0.799-0.043-3.195 0-3.994 0.043-0.777 0.216-1.468 0.777-2.030 0.583-0.561 1.252-0.734 2.030-0.777 0.799-0.043 3.195-0.043 3.994 0 0.777 0.043 1.468 0.216 2.029 0.777s0.734 1.252 0.777 2.030zM20.339 17.905c0.259-0.626 0.194-2.137 0.194-2.85 0-0.691 0.065-2.202-0.194-2.85-0.173-0.41-0.497-0.756-0.907-0.907-0.648-0.259-2.159-0.194-2.85-0.194-0.713 0-2.224-0.065-2.85 0.194-0.432 0.173-0.756 0.497-0.928 0.907-0.259 0.648-0.194 2.159-0.194 2.85 0 0.713-0.065 2.224 0.194 2.85 0.173 0.432 0.497 0.756 0.928 0.928 0.626 0.259 2.137 0.194 2.85 0.194 0.691 0 2.202 0.065 2.85-0.194 0.41-0.173 0.756-0.497 0.907-0.928z"></path>
</symbol>
<symbol id="icon-linkedin-btn" viewBox="0 0 33 32">
<path fill="none" stroke="#5c8692" style="stroke: var(--color1, #5c8692)" stroke-linejoin="miter" stroke-linecap="butt" stroke-miterlimit="4" stroke-width="1.1636" d="M0.873 0.582h30.836v30.836h-30.836v-30.836z"></path>
<path fill="#fff" style="fill: var(--color2, #fff)" d="M14.045 19.2v-6.116h-1.902v6.116h1.902zM13.084 12.266c0.614 0 1.105-0.511 1.105-1.125 0-0.593-0.491-1.084-1.105-1.084-0.593 0-1.084 0.491-1.084 1.084 0 0.614 0.491 1.125 1.084 1.125zM21.143 19.2h0.020v-3.355c0-1.636-0.368-2.905-2.291-2.905-0.92 0-1.534 0.511-1.8 0.982h-0.020v-0.839h-1.82v6.116h1.902v-3.027c0-0.798 0.143-1.555 1.125-1.555s1.002 0.9 1.002 1.616v2.966h1.882z"></path>
</symbol>
<symbol id="icon-twitter-btn" viewBox="0 0 33 32">
<path fill="none" stroke="#5c8692" style="stroke: var(--color1, #5c8692)" stroke-linejoin="miter" stroke-linecap="butt" stroke-miterlimit="4" stroke-width="1.1636" d="M0.873 0.582h30.836v30.836h-30.836v-30.836z"></path>
<path fill="#fff" style="fill: var(--color2, #fff)" d="M20.734 13.727c0.409-0.307 0.777-0.675 1.064-1.105-0.368 0.164-0.798 0.286-1.227 0.327 0.45-0.266 0.777-0.675 0.941-1.186-0.409 0.245-0.88 0.429-1.35 0.532-0.409-0.43-0.961-0.675-1.575-0.675-1.186 0-2.148 0.961-2.148 2.148 0 0.164 0.020 0.327 0.061 0.491-1.78-0.102-3.375-0.961-4.439-2.25-0.184 0.307-0.286 0.675-0.286 1.084 0 0.736 0.368 1.391 0.961 1.78-0.348-0.020-0.695-0.102-0.982-0.266v0.020c0 1.043 0.736 1.902 1.718 2.107-0.164 0.041-0.368 0.082-0.552 0.082-0.143 0-0.266-0.020-0.409-0.041 0.266 0.859 1.064 1.473 2.005 1.493-0.736 0.573-1.657 0.921-2.659 0.921-0.184 0-0.348-0.020-0.511-0.041 0.941 0.614 2.066 0.961 3.293 0.961 3.948 0 6.095-3.252 6.095-6.095 0-0.102 0-0.184 0-0.286z"></path>
</symbol>
<symbol id="icon-facebook-btn" viewBox="0 0 33 32">
<path fill="none" stroke="#5c8692" style="stroke: var(--color1, #5c8692)" stroke-linejoin="miter" stroke-linecap="butt" stroke-miterlimit="4" stroke-width="1.1636" d="M0.873 0.582h30.836v30.836h-30.836v-30.836z"></path>
<path fill="#fff" style="fill: var(--color2, #fff)" d="M18.434 16.509l0.286-1.882h-1.82v-1.227c0-0.532 0.245-1.023 1.064-1.023h0.839v-1.616c0 0-0.757-0.143-1.473-0.143-1.493 0-2.475 0.92-2.475 2.557v1.452h-1.677v1.882h1.677v4.582h2.046v-4.582h1.534z"></path>
</symbol>
</defs>
</svg>
