<svg xmlns="http://www.w3.org/2000/svg" aria-hidden="true" style="position:absolute;width:0;height:0;overflow:hidden">
    <defs>

        <symbol id="footer-logo-icon" viewBox="0 0 299 65">
            <circle cx="33" cy="32.5" r="30" stroke="#5C8692" stroke-width="5"/>
            <path d="M49.2812 23.999C49.5285 26.5686 48.5984 29.1452 46.6956 31.1621L35.307 43.2689L19.6204 44.7787L18.3001 31.061L29.7087 18.9686C31.6115 16.9516 34.3313 15.6597 37.2696 15.3769L47.5468 15.6229L49.2812 23.999Z" stroke="#5C8692" stroke-width="5" stroke-linecap="round" stroke-linejoin="round"/>
            <path d="M39.8941 23.6367L10.3486 53.1822" stroke="#5C8692" stroke-width="5" stroke-linecap="round" stroke-linejoin="round"/>
            <path d="M41.8641 35.4551H28.0762" stroke="#5C8692" stroke-width="5" stroke-linecap="round" stroke-linejoin="round"/>
            <path d="M39.8943 23.6367H26.1064" stroke="#5C8692" stroke-width="5" stroke-linecap="round" stroke-linejoin="round"/>
            <path d="M83.86 17.68C84.5533 17.7067 85.46 17.7333 86.58 17.76C87.7 17.7867 88.82 17.8 89.94 17.8C91.22 17.8 92.46 17.7867 93.66 17.76C94.86 17.7333 95.7133 17.72 96.22 17.72C99.5267 17.72 101.993 18.3067 103.62 19.48C105.273 20.6533 106.1 22.16 106.1 24C106.1 24.9333 105.82 25.88 105.26 26.84C104.7 27.8 103.833 28.6533 102.66 29.4C101.487 30.1467 99.9667 30.6933 98.1 31.04V31.12C100.607 31.3067 102.593 31.76 104.06 32.48C105.527 33.2 106.58 34.0667 107.22 35.08C107.86 36.0933 108.18 37.1467 108.18 38.24C108.18 39.92 107.74 41.3333 106.86 42.48C105.98 43.6267 104.713 44.5067 103.06 45.12C101.407 45.7067 99.4333 46 97.14 46C96.5 46 95.58 45.9867 94.38 45.96C93.18 45.9067 91.7267 45.88 90.02 45.88C88.8467 45.88 87.7 45.8933 86.58 45.92C85.46 45.92 84.5533 45.9467 83.86 46V45.2C84.7133 45.1467 85.3533 45.04 85.78 44.88C86.2067 44.72 86.4867 44.4 86.62 43.92C86.78 43.44 86.86 42.72 86.86 41.76V21.92C86.86 20.9333 86.78 20.2133 86.62 19.76C86.4867 19.28 86.1933 18.96 85.74 18.8C85.3133 18.6133 84.6867 18.5067 83.86 18.48V17.68ZM95.7 18.48C94.66 18.48 93.98 18.7067 93.66 19.16C93.3667 19.6133 93.22 20.5333 93.22 21.92V41.76C93.22 42.6933 93.2867 43.4 93.42 43.88C93.58 44.36 93.8467 44.68 94.22 44.84C94.62 45 95.2067 45.08 95.98 45.08C97.9 45.08 99.3 44.48 100.18 43.28C101.087 42.0533 101.54 40.32 101.54 38.08C101.54 36.0267 101.02 34.44 99.98 33.32C98.9667 32.2 97.2733 31.64 94.9 31.64H91.5C91.5 31.64 91.5 31.5333 91.5 31.32C91.5 31.08 91.5 30.96 91.5 30.96H94.94C96.1933 30.96 97.1533 30.6667 97.82 30.08C98.4867 29.4667 98.9533 28.6667 99.22 27.68C99.4867 26.6667 99.62 25.5867 99.62 24.44C99.62 22.4667 99.3133 20.9867 98.7 20C98.0867 18.9867 97.0867 18.48 95.7 18.48ZM121.455 24.76C123.802 24.76 125.642 25.4533 126.975 26.84C128.308 28.2267 128.975 30.4933 128.975 33.64H115.815L115.735 32.88H123.935C123.962 31.5733 123.882 30.3733 123.695 29.28C123.508 28.16 123.215 27.2667 122.815 26.6C122.415 25.9333 121.882 25.6 121.215 25.6C120.282 25.6 119.482 26.1867 118.815 27.36C118.175 28.5333 117.788 30.48 117.655 33.2L117.775 33.44C117.748 33.76 117.722 34.0933 117.695 34.44C117.695 34.7867 117.695 35.1467 117.695 35.52C117.695 37.36 117.948 38.8533 118.455 40C118.988 41.1467 119.655 41.9867 120.455 42.52C121.255 43.0267 122.068 43.28 122.895 43.28C123.455 43.28 124.028 43.2 124.615 43.04C125.228 42.8533 125.842 42.5333 126.455 42.08C127.068 41.6 127.642 40.9333 128.175 40.08L128.895 40.32C128.575 41.3333 128.068 42.32 127.375 43.28C126.682 44.24 125.802 45.0267 124.735 45.64C123.668 46.2533 122.388 46.56 120.895 46.56C119.082 46.56 117.482 46.1733 116.095 45.4C114.708 44.6267 113.615 43.4533 112.815 41.88C112.042 40.3067 111.655 38.3067 111.655 35.88C111.655 33.4 112.068 31.3333 112.895 29.68C113.748 28.0267 114.908 26.8 116.375 26C117.868 25.1733 119.562 24.76 121.455 24.76ZM137.611 46.28C136.411 46.28 135.411 46.0533 134.611 45.6C133.811 45.1467 133.225 44.5467 132.851 43.8C132.478 43.0267 132.291 42.1867 132.291 41.28C132.291 40.1333 132.545 39.2 133.051 38.48C133.585 37.76 134.265 37.1733 135.091 36.72C135.918 36.2667 136.785 35.8933 137.691 35.6C138.625 35.3067 139.505 35.0267 140.331 34.76C141.185 34.4667 141.865 34.1333 142.371 33.76C142.905 33.36 143.171 32.8533 143.171 32.24V29.12C143.171 28.4267 143.051 27.8133 142.811 27.28C142.598 26.72 142.251 26.2933 141.771 26C141.318 25.7067 140.718 25.56 139.971 25.56C139.438 25.56 138.905 25.64 138.371 25.8C137.838 25.9333 137.398 26.1733 137.051 26.52C137.798 26.7867 138.371 27.2 138.771 27.76C139.198 28.2933 139.411 28.9067 139.411 29.6C139.411 30.5067 139.091 31.2267 138.451 31.76C137.838 32.2933 137.105 32.56 136.251 32.56C135.291 32.56 134.558 32.2667 134.051 31.68C133.571 31.0667 133.331 30.3333 133.331 29.48C133.331 28.7067 133.518 28.0667 133.891 27.56C134.291 27.0533 134.838 26.5733 135.531 26.12C136.278 25.6933 137.171 25.36 138.211 25.12C139.278 24.88 140.425 24.76 141.651 24.76C142.878 24.76 143.985 24.8933 144.971 25.16C145.958 25.4 146.785 25.8533 147.451 26.52C148.065 27.1333 148.465 27.8933 148.651 28.8C148.838 29.68 148.931 30.8 148.931 32.16V43.04C148.931 43.7067 148.998 44.1733 149.131 44.44C149.265 44.68 149.491 44.8 149.811 44.8C150.051 44.8 150.278 44.7333 150.491 44.6C150.731 44.4667 150.985 44.3067 151.251 44.12L151.651 44.8C151.091 45.28 150.438 45.6533 149.691 45.92C148.971 46.16 148.158 46.28 147.251 46.28C146.265 46.28 145.478 46.1467 144.891 45.88C144.305 45.5867 143.878 45.2 143.611 44.72C143.371 44.24 143.251 43.68 143.251 43.04C142.611 44.0533 141.838 44.8533 140.931 45.44C140.025 46 138.918 46.28 137.611 46.28ZM140.451 43.72C140.985 43.72 141.465 43.6 141.891 43.36C142.345 43.0933 142.771 42.6667 143.171 42.08V33.88C142.931 34.28 142.598 34.64 142.171 34.96C141.745 35.28 141.291 35.6133 140.811 35.96C140.331 36.28 139.865 36.64 139.411 37.04C138.985 37.44 138.638 37.9333 138.371 38.52C138.105 39.1067 137.971 39.8133 137.971 40.64C137.971 41.68 138.198 42.4533 138.651 42.96C139.105 43.4667 139.705 43.72 140.451 43.72ZM173.514 24.88V41.64C173.514 42.84 173.701 43.7333 174.074 44.32C174.448 44.88 175.114 45.16 176.074 45.16V46C175.248 45.92 174.421 45.88 173.594 45.88C172.474 45.88 171.434 45.92 170.474 46C169.514 46.08 168.608 46.2267 167.754 46.44V42.84C167.114 44.1733 166.221 45.1333 165.074 45.72C163.954 46.28 162.701 46.56 161.314 46.56C160.194 46.56 159.288 46.4133 158.594 46.12C157.901 45.8267 157.354 45.4533 156.954 45C156.501 44.4933 156.181 43.8267 155.994 43C155.808 42.1733 155.714 41.1067 155.714 39.8V29.68C155.714 28.48 155.528 27.6 155.154 27.04C154.808 26.4533 154.141 26.16 153.154 26.16V25.32C154.008 25.4 154.834 25.44 155.634 25.44C156.754 25.44 157.794 25.4 158.754 25.32C159.741 25.2133 160.648 25.0667 161.474 24.88V41.44C161.474 42.1067 161.528 42.6933 161.634 43.2C161.768 43.7067 162.008 44.1067 162.354 44.4C162.701 44.6667 163.208 44.8 163.874 44.8C164.594 44.8 165.234 44.6 165.794 44.2C166.381 43.8 166.848 43.2533 167.194 42.56C167.568 41.84 167.754 41.04 167.754 40.16V29.68C167.754 28.48 167.568 27.6 167.194 27.04C166.848 26.4533 166.181 26.16 165.194 26.16V25.32C166.048 25.4 166.874 25.44 167.674 25.44C168.794 25.44 169.834 25.4 170.794 25.32C171.781 25.2133 172.688 25.0667 173.514 24.88ZM186.772 18.76V25.32H191.492V26.12H186.772V42.28C186.772 43.08 186.919 43.6533 187.212 44C187.506 44.32 187.946 44.48 188.532 44.48C189.012 44.48 189.492 44.3067 189.972 43.96C190.452 43.5867 190.879 42.96 191.252 42.08L191.932 42.44C191.506 43.64 190.852 44.6267 189.972 45.4C189.119 46.1733 187.946 46.56 186.452 46.56C185.572 46.56 184.799 46.44 184.132 46.2C183.466 45.9867 182.906 45.6533 182.452 45.2C181.866 44.6133 181.479 43.8933 181.292 43.04C181.106 42.16 181.012 41.0267 181.012 39.64V26.12H177.652V25.32H181.012V20.04C182.132 20.04 183.159 19.9467 184.092 19.76C185.052 19.5467 185.946 19.2133 186.772 18.76ZM213.075 25.32V26.12C212.568 26.2533 212.088 26.5733 211.635 27.08C211.181 27.56 210.741 28.3867 210.315 29.56L204.675 45.4L203.195 48.2L194.475 28.4C194.021 27.36 193.568 26.7333 193.115 26.52C192.688 26.28 192.315 26.16 191.995 26.16V25.32C192.875 25.4 193.781 25.4667 194.715 25.52C195.675 25.5467 196.595 25.56 197.475 25.56C198.568 25.56 199.568 25.5333 200.475 25.48C201.381 25.4267 202.235 25.3733 203.035 25.32V26.16C202.501 26.16 201.995 26.2 201.515 26.28C201.061 26.3333 200.741 26.52 200.555 26.84C200.395 27.1333 200.475 27.6533 200.795 28.4L205.835 40.56L205.475 40.8L208.435 32.52C208.941 31.08 209.155 29.9067 209.075 29C208.995 28.0667 208.701 27.3733 208.195 26.92C207.688 26.44 206.995 26.1733 206.115 26.12V25.32C206.541 25.3467 206.981 25.3733 207.435 25.4C207.888 25.4 208.341 25.4133 208.795 25.44C209.248 25.44 209.648 25.44 209.995 25.44C210.528 25.44 211.088 25.4267 211.675 25.4C212.261 25.3733 212.728 25.3467 213.075 25.32ZM204.675 45.4L203.155 49.68C202.888 50.3467 202.608 50.9067 202.315 51.36C202.048 51.84 201.741 52.2267 201.395 52.52C201.021 52.84 200.541 53.08 199.955 53.24C199.368 53.4267 198.688 53.52 197.915 53.52C197.275 53.52 196.608 53.4133 195.915 53.2C195.248 52.9867 194.688 52.64 194.235 52.16C193.781 51.68 193.555 51.0667 193.555 50.32C193.555 49.4933 193.848 48.8267 194.435 48.32C195.021 47.84 195.795 47.6 196.755 47.6C197.635 47.6 198.355 47.8133 198.915 48.24C199.475 48.6667 199.755 49.2933 199.755 50.12C199.755 50.6533 199.581 51.16 199.235 51.64C198.915 52.12 198.421 52.48 197.755 52.72C197.888 52.7467 198.048 52.76 198.235 52.76C198.421 52.76 198.568 52.76 198.675 52.76C199.475 52.76 200.181 52.5067 200.795 52C201.408 51.4933 201.915 50.6933 202.315 49.6L203.715 45.48L204.675 45.4ZM229.937 24.76C231.057 24.76 231.964 24.9067 232.657 25.2C233.377 25.4667 233.937 25.84 234.337 26.32C234.764 26.8267 235.07 27.48 235.257 28.28C235.47 29.08 235.577 30.16 235.577 31.52V42.28C235.577 43.4 235.764 44.16 236.137 44.56C236.537 44.96 237.204 45.16 238.137 45.16V46C237.63 45.9733 236.87 45.9467 235.857 45.92C234.844 45.8667 233.844 45.84 232.857 45.84C231.844 45.84 230.844 45.8667 229.857 45.92C228.897 45.9467 228.164 45.9733 227.657 46V45.16C228.457 45.16 229.017 44.96 229.337 44.56C229.657 44.16 229.817 43.4 229.817 42.28V29.84C229.817 29.1733 229.75 28.6 229.617 28.12C229.484 27.6133 229.244 27.2267 228.897 26.96C228.55 26.6667 228.03 26.52 227.337 26.52C226.617 26.52 225.95 26.72 225.337 27.12C224.75 27.52 224.27 28.08 223.897 28.8C223.55 29.4933 223.377 30.28 223.377 31.16V42.28C223.377 43.4 223.537 44.16 223.857 44.56C224.204 44.96 224.764 45.16 225.537 45.16V46C225.057 45.9733 224.35 45.9467 223.417 45.92C222.51 45.8667 221.564 45.84 220.577 45.84C219.564 45.84 218.524 45.8667 217.457 45.92C216.39 45.9467 215.59 45.9733 215.057 46V45.16C215.99 45.16 216.644 44.96 217.017 44.56C217.417 44.16 217.617 43.4 217.617 42.28V29.68C217.617 28.48 217.43 27.6 217.057 27.04C216.71 26.4533 216.044 26.16 215.057 26.16V25.32C215.91 25.4 216.737 25.44 217.537 25.44C218.657 25.44 219.697 25.4 220.657 25.32C221.644 25.2133 222.55 25.0667 223.377 24.88V28.48C224.044 27.12 224.95 26.16 226.097 25.6C227.244 25.04 228.524 24.76 229.937 24.76ZM250.747 24.76C253.094 24.76 254.934 25.4533 256.267 26.84C257.601 28.2267 258.267 30.4933 258.267 33.64H245.107L245.027 32.88H253.227C253.254 31.5733 253.174 30.3733 252.987 29.28C252.801 28.16 252.507 27.2667 252.107 26.6C251.707 25.9333 251.174 25.6 250.507 25.6C249.574 25.6 248.774 26.1867 248.107 27.36C247.467 28.5333 247.081 30.48 246.947 33.2L247.067 33.44C247.041 33.76 247.014 34.0933 246.987 34.44C246.987 34.7867 246.987 35.1467 246.987 35.52C246.987 37.36 247.241 38.8533 247.747 40C248.281 41.1467 248.947 41.9867 249.747 42.52C250.547 43.0267 251.361 43.28 252.187 43.28C252.747 43.28 253.321 43.2 253.907 43.04C254.521 42.8533 255.134 42.5333 255.747 42.08C256.361 41.6 256.934 40.9333 257.467 40.08L258.187 40.32C257.867 41.3333 257.361 42.32 256.667 43.28C255.974 44.24 255.094 45.0267 254.027 45.64C252.961 46.2533 251.681 46.56 250.187 46.56C248.374 46.56 246.774 46.1733 245.387 45.4C244.001 44.6267 242.907 43.4533 242.107 41.88C241.334 40.3067 240.947 38.3067 240.947 35.88C240.947 33.4 241.361 31.3333 242.187 29.68C243.041 28.0267 244.201 26.8 245.667 26C247.161 25.1733 248.854 24.76 250.747 24.76ZM269.303 24.76C270.423 24.76 271.397 24.9067 272.223 25.2C273.077 25.4667 273.69 25.7333 274.063 26C274.97 26.6133 275.53 26.2133 275.743 24.8H276.583C276.53 25.5467 276.49 26.4667 276.463 27.56C276.437 28.6267 276.423 30.0533 276.423 31.84H275.583C275.45 30.8533 275.197 29.88 274.823 28.92C274.45 27.96 273.903 27.1733 273.183 26.56C272.49 25.9467 271.583 25.64 270.463 25.64C269.69 25.64 269.037 25.8667 268.503 26.32C267.97 26.7467 267.703 27.3733 267.703 28.2C267.703 29 267.943 29.7067 268.423 30.32C268.903 30.9067 269.517 31.48 270.263 32.04C271.037 32.5733 271.837 33.1467 272.663 33.76C273.543 34.4267 274.343 35.0933 275.063 35.76C275.783 36.4 276.357 37.1067 276.783 37.88C277.21 38.6533 277.423 39.5733 277.423 40.64C277.423 41.84 277.077 42.8933 276.383 43.8C275.69 44.68 274.77 45.36 273.623 45.84C272.503 46.32 271.25 46.56 269.863 46.56C269.063 46.56 268.343 46.48 267.703 46.32C267.09 46.16 266.557 45.96 266.103 45.72C265.757 45.56 265.423 45.4133 265.103 45.28C264.81 45.12 264.53 44.9867 264.263 44.88C263.997 44.8 263.757 44.8933 263.543 45.16C263.357 45.4267 263.21 45.8 263.103 46.28H262.263C262.317 45.4267 262.357 44.3867 262.383 43.16C262.41 41.9333 262.423 40.3067 262.423 38.28H263.263C263.423 39.72 263.717 41 264.143 42.12C264.57 43.2133 265.143 44.08 265.863 44.72C266.61 45.3333 267.543 45.64 268.663 45.64C269.117 45.64 269.557 45.5467 269.983 45.36C270.41 45.1733 270.757 44.8667 271.023 44.44C271.317 44.0133 271.463 43.4667 271.463 42.8C271.463 41.6267 271.077 40.6533 270.303 39.88C269.557 39.1067 268.597 38.2667 267.423 37.36C266.57 36.6667 265.757 35.9867 264.983 35.32C264.237 34.6267 263.623 33.88 263.143 33.08C262.663 32.2533 262.423 31.32 262.423 30.28C262.423 29.08 262.743 28.0667 263.383 27.24C264.023 26.4133 264.863 25.8 265.903 25.4C266.97 24.9733 268.103 24.76 269.303 24.76ZM288.58 24.76C289.7 24.76 290.673 24.9067 291.5 25.2C292.353 25.4667 292.967 25.7333 293.34 26C294.247 26.6133 294.807 26.2133 295.02 24.8H295.86C295.807 25.5467 295.767 26.4667 295.74 27.56C295.713 28.6267 295.7 30.0533 295.7 31.84H294.86C294.727 30.8533 294.473 29.88 294.1 28.92C293.727 27.96 293.18 27.1733 292.46 26.56C291.767 25.9467 290.86 25.64 289.74 25.64C288.967 25.64 288.313 25.8667 287.78 26.32C287.247 26.7467 286.98 27.3733 286.98 28.2C286.98 29 287.22 29.7067 287.7 30.32C288.18 30.9067 288.793 31.48 289.54 32.04C290.313 32.5733 291.113 33.1467 291.94 33.76C292.82 34.4267 293.62 35.0933 294.34 35.76C295.06 36.4 295.633 37.1067 296.06 37.88C296.487 38.6533 296.7 39.5733 296.7 40.64C296.7 41.84 296.353 42.8933 295.66 43.8C294.967 44.68 294.047 45.36 292.9 45.84C291.78 46.32 290.527 46.56 289.14 46.56C288.34 46.56 287.62 46.48 286.98 46.32C286.367 46.16 285.833 45.96 285.38 45.72C285.033 45.56 284.7 45.4133 284.38 45.28C284.087 45.12 283.807 44.9867 283.54 44.88C283.273 44.8 283.033 44.8933 282.82 45.16C282.633 45.4267 282.487 45.8 282.38 46.28H281.54C281.593 45.4267 281.633 44.3867 281.66 43.16C281.687 41.9333 281.7 40.3067 281.7 38.28H282.54C282.7 39.72 282.993 41 283.42 42.12C283.847 43.2133 284.42 44.08 285.14 44.72C285.887 45.3333 286.82 45.64 287.94 45.64C288.393 45.64 288.833 45.5467 289.26 45.36C289.687 45.1733 290.033 44.8667 290.3 44.44C290.593 44.0133 290.74 43.4667 290.74 42.8C290.74 41.6267 290.353 40.6533 289.58 39.88C288.833 39.1067 287.873 38.2667 286.7 37.36C285.847 36.6667 285.033 35.9867 284.26 35.32C283.513 34.6267 282.9 33.88 282.42 33.08C281.94 32.2533 281.7 31.32 281.7 30.28C281.7 29.08 282.02 28.0667 282.66 27.24C283.3 26.4133 284.14 25.8 285.18 25.4C286.247 24.9733 287.38 24.76 288.58 24.76Z" fill="white"/>
        </symbol>


        <symbol id="logo-icon" fill="none" viewBox="0 0 191 36">
            <path fill="#141414" d="M45.952 9.676c.485.019 1.12.037 1.904.056a98.79 98.79 0 0 0 2.352.028c.896 0 1.764-.01 2.604-.028.84-.019 1.437-.028 1.792-.028 2.315 0 4.041.41 5.18 1.232 1.157.821 1.736 1.876 1.736 3.164 0 .653-.196 1.316-.588 1.988-.392.672-.999 1.27-1.82 1.792-.821.523-1.885.905-3.192 1.148v.056c1.755.13 3.145.448 4.172.952 1.027.504 1.764 1.11 2.212 1.82.448.71.672 1.447.672 2.212 0 1.176-.308 2.165-.924 2.968-.616.803-1.503 1.419-2.66 1.848-1.157.41-2.539.616-4.144.616-.448 0-1.092-.01-1.932-.028a70.383 70.383 0 0 0-3.052-.056c-.821 0-1.624.01-2.408.028-.784 0-1.419.019-1.904.056v-.56c.597-.037 1.045-.112 1.344-.224.299-.112.495-.336.588-.672.112-.336.168-.84.168-1.512V12.644c0-.69-.056-1.195-.168-1.512a.935.935 0 0 0-.616-.672c-.299-.13-.737-.205-1.316-.224v-.56Zm8.288.56c-.728 0-1.204.159-1.428.476-.205.317-.308.961-.308 1.932v13.888c0 .653.047 1.148.14 1.484.112.336.299.56.56.672.28.112.69.168 1.232.168 1.344 0 2.324-.42 2.94-1.26.635-.859.952-2.072.952-3.64 0-1.437-.364-2.548-1.092-3.332-.71-.784-1.895-1.176-3.556-1.176H51.3v-.476h2.408c.877 0 1.55-.205 2.016-.616.467-.43.793-.99.98-1.68a8.88 8.88 0 0 0 .28-2.268c0-1.381-.215-2.417-.644-3.108-.43-.71-1.13-1.064-2.1-1.064Zm17.468 4.396c1.643 0 2.931.485 3.865 1.456.933.97 1.4 2.557 1.4 4.76H67.76l-.056-.532h5.74a13.379 13.379 0 0 0-.168-2.52c-.13-.784-.335-1.41-.615-1.876-.28-.467-.654-.7-1.12-.7-.654 0-1.214.41-1.68 1.232-.449.821-.72 2.184-.813 4.088l.084.168-.056.7v.756c0 1.288.178 2.333.533 3.136.373.803.84 1.39 1.4 1.764.56.355 1.129.532 1.707.532.393 0 .794-.056 1.205-.168.429-.13.858-.355 1.287-.672.43-.336.831-.803 1.204-1.4l.504.168a7.29 7.29 0 0 1-1.063 2.072 5.833 5.833 0 0 1-1.849 1.652c-.746.43-1.642.644-2.688.644-1.269 0-2.389-.27-3.36-.812-.97-.541-1.736-1.363-2.296-2.464-.54-1.101-.811-2.501-.811-4.2 0-1.736.289-3.183.867-4.34.598-1.157 1.41-2.016 2.437-2.576 1.045-.579 2.23-.868 3.555-.868Zm10.75 15.064c-.84 0-1.54-.159-2.1-.476-.56-.317-.97-.737-1.232-1.26a4.003 4.003 0 0 1-.392-1.764c0-.803.177-1.456.532-1.96.373-.504.85-.915 1.428-1.232a10.49 10.49 0 0 1 1.82-.784c.653-.205 1.27-.401 1.848-.588.597-.205 1.073-.439 1.428-.7.373-.28.56-.635.56-1.064v-2.184a3.11 3.11 0 0 0-.252-1.288 1.74 1.74 0 0 0-.728-.896c-.318-.205-.738-.308-1.26-.308a3.88 3.88 0 0 0-1.12.168 1.94 1.94 0 0 0-.924.504c.522.187.924.476 1.204.868.299.373.448.803.448 1.288 0 .635-.224 1.139-.672 1.512-.43.373-.943.56-1.54.56-.672 0-1.186-.205-1.54-.616-.336-.43-.504-.943-.504-1.54 0-.541.13-.99.392-1.344.28-.355.662-.69 1.148-1.008.523-.299 1.148-.532 1.876-.7.746-.168 1.55-.252 2.408-.252.858 0 1.633.093 2.324.28.69.168 1.27.485 1.736.952.43.43.71.961.84 1.596.13.616.196 1.4.196 2.352v7.616c0 .467.046.793.14.98.093.168.252.252.476.252a.884.884 0 0 0 .476-.14c.168-.093.345-.205.532-.336l.28.476c-.392.336-.85.597-1.372.784a5.387 5.387 0 0 1-1.708.252c-.69 0-1.242-.093-1.652-.28-.41-.205-.71-.476-.896-.812-.168-.336-.252-.728-.252-1.176-.448.71-.99 1.27-1.624 1.68-.635.392-1.41.588-2.324.588Zm1.988-1.792c.373 0 .71-.084 1.008-.252.317-.187.616-.485.896-.896v-5.74c-.168.28-.401.532-.7.756-.299.224-.616.457-.952.7a9.167 9.167 0 0 0-.98.756c-.299.28-.541.625-.728 1.036-.187.41-.28.905-.28 1.484 0 .728.159 1.27.476 1.624.317.355.737.532 1.26.532Zm22.584-13.188v11.732c0 .84.131 1.465.392 1.876.261.392.728.588 1.4.588v.588a18.012 18.012 0 0 0-1.736-.084c-.784 0-1.512.028-2.184.084-.672.056-1.307.159-1.904.308v-2.52c-.448.933-1.073 1.605-1.876 2.016-.784.392-1.661.588-2.632.588-.784 0-1.419-.103-1.904-.308-.485-.205-.868-.467-1.148-.784-.317-.355-.541-.821-.672-1.4-.13-.579-.196-1.325-.196-2.24v-7.084c0-.84-.13-1.456-.392-1.848-.243-.41-.71-.616-1.4-.616v-.588c.597.056 1.176.084 1.736.084.784 0 1.512-.028 2.184-.084.69-.075 1.325-.177 1.904-.308v11.592c0 .467.037.877.112 1.232.093.355.261.635.504.84.243.187.597.28 1.064.28.504 0 .952-.14 1.344-.42.411-.28.737-.663.98-1.148a3.599 3.599 0 0 0 .392-1.68v-7.336c0-.84-.131-1.456-.392-1.848-.243-.41-.709-.616-1.4-.616v-.588a18.6 18.6 0 0 0 1.736.084c.784 0 1.512-.028 2.184-.084a16.935 16.935 0 0 0 1.904-.308Zm8.721-4.284v4.592h3.304v.56h-3.304v11.312c0 .56.102.961.308 1.204.205.224.513.336.924.336.336 0 .672-.121 1.008-.364.336-.261.634-.7.896-1.316l.476.252c-.299.84-.756 1.53-1.372 2.072-.598.541-1.419.812-2.464.812-.616 0-1.158-.084-1.624-.252a2.864 2.864 0 0 1-1.176-.7 2.986 2.986 0 0 1-.812-1.512c-.131-.616-.196-1.41-.196-2.38v-9.464h-2.352v-.56h2.352v-3.696c.784 0 1.502-.065 2.156-.196a7.072 7.072 0 0 0 1.876-.7Zm17.851 4.592v.56c-.354.093-.69.317-1.008.672-.317.336-.625.915-.924 1.736l-3.948 11.088-1.036 1.96-6.104-13.86c-.317-.728-.634-1.167-.952-1.316-.298-.168-.56-.252-.784-.252v-.588c.616.056 1.251.103 1.904.14.672.019 1.316.028 1.932.028.766 0 1.466-.019 2.1-.056.635-.037 1.232-.075 1.792-.112v.588c-.373 0-.728.028-1.064.084-.317.037-.541.168-.672.392-.112.205-.056.57.168 1.092l3.528 8.512-.252.168 2.072-5.796c.355-1.008.504-1.83.448-2.464-.056-.653-.261-1.139-.616-1.456-.354-.336-.84-.523-1.456-.56v-.56l.924.056c.318 0 .635.01.952.028h.84a32.76 32.76 0 0 0 2.156-.084Zm-5.88 14.056-1.064 2.996a6.785 6.785 0 0 1-.588 1.176 2.861 2.861 0 0 1-.644.812c-.261.224-.597.392-1.008.504-.41.13-.886.196-1.428.196a4.76 4.76 0 0 1-1.4-.224 2.738 2.738 0 0 1-1.176-.728c-.317-.336-.476-.765-.476-1.288 0-.579.206-1.045.616-1.4.411-.336.952-.504 1.624-.504.616 0 1.12.15 1.512.448.392.299.588.737.588 1.316 0 .373-.121.728-.364 1.064-.224.336-.569.588-1.036.756.094.019.206.028.336.028h.308c.56 0 1.055-.177 1.484-.532.43-.355.784-.915 1.064-1.68l.98-2.884.672-.056Zm17.124-14.448c.784 0 1.418.103 1.904.308.504.187.896.448 1.176.784.298.355.513.812.644 1.372.149.56.224 1.316.224 2.268v7.532c0 .784.13 1.316.392 1.596.28.28.746.42 1.4.42v.588a66.596 66.596 0 0 0-1.596-.056 40.03 40.03 0 0 0-4.2 0c-.672.019-1.186.037-1.54.056v-.588c.56 0 .952-.14 1.176-.42.224-.28.336-.812.336-1.596v-8.708c0-.467-.047-.868-.14-1.204-.094-.355-.262-.625-.504-.812-.243-.205-.607-.308-1.092-.308-.504 0-.971.14-1.4.42-.411.28-.747.672-1.008 1.176-.243.485-.364 1.036-.364 1.652v7.784c0 .784.112 1.316.336 1.596.242.28.634.42 1.176.42v.588a59.926 59.926 0 0 0-1.484-.056 33.944 33.944 0 0 0-1.988-.056c-.71 0-1.438.019-2.184.056a73.49 73.49 0 0 0-1.68.056v-.588c.653 0 1.11-.14 1.372-.42.28-.28.42-.812.42-1.596v-8.82c0-.84-.131-1.456-.392-1.848-.243-.41-.71-.616-1.4-.616v-.588a18.6 18.6 0 0 0 1.736.084c.784 0 1.512-.028 2.184-.084.69-.075 1.325-.177 1.904-.308v2.52c.466-.952 1.101-1.624 1.904-2.016.802-.392 1.698-.588 2.688-.588Zm14.007 0c1.643 0 2.931.485 3.864 1.456.933.97 1.4 2.557 1.4 4.76h-9.212l-.056-.532h5.74a13.329 13.329 0 0 0-.168-2.52c-.131-.784-.336-1.41-.616-1.876-.28-.467-.653-.7-1.12-.7-.653 0-1.213.41-1.68 1.232-.448.821-.719 2.184-.812 4.088l.084.168c-.019.224-.037.457-.056.7v.756c0 1.288.177 2.333.532 3.136.373.803.84 1.39 1.4 1.764.56.355 1.129.532 1.708.532.392 0 .793-.056 1.204-.168.429-.13.859-.355 1.288-.672.429-.336.831-.803 1.204-1.4l.504.168c-.224.71-.579 1.4-1.064 2.072a5.826 5.826 0 0 1-1.848 1.652c-.747.43-1.643.644-2.688.644-1.269 0-2.389-.27-3.36-.812-.971-.541-1.736-1.363-2.296-2.464-.541-1.101-.812-2.501-.812-4.2 0-1.736.289-3.183.868-4.34.597-1.157 1.409-2.016 2.436-2.576 1.045-.579 2.231-.868 3.556-.868Zm12.429 0c.784 0 1.466.103 2.044.308.598.187 1.027.373 1.288.56.635.43 1.027.15 1.176-.84h.588a43.329 43.329 0 0 0-.084 1.932c-.018.747-.028 1.745-.028 2.996h-.588a8.868 8.868 0 0 0-.532-2.044 4.052 4.052 0 0 0-1.148-1.652c-.485-.43-1.12-.644-1.904-.644-.541 0-.998.159-1.372.476-.373.299-.56.737-.56 1.316 0 .56.168 1.055.504 1.484.336.41.766.812 1.288 1.204.542.373 1.102.775 1.68 1.204.616.467 1.176.933 1.68 1.4.504.448.906.943 1.204 1.484.299.541.448 1.185.448 1.932 0 .84-.242 1.577-.728 2.212-.485.616-1.129 1.092-1.932 1.428-.784.336-1.661.504-2.632.504-.56 0-1.064-.056-1.512-.168a5.22 5.22 0 0 1-1.12-.42 19.749 19.749 0 0 0-.7-.308 5.448 5.448 0 0 0-.588-.28c-.186-.056-.354.01-.504.196-.13.187-.233.448-.308.784h-.588c.038-.597.066-1.325.084-2.184.019-.859.028-1.997.028-3.416h.588c.112 1.008.318 1.904.616 2.688.299.765.7 1.372 1.204 1.82.523.43 1.176.644 1.96.644.318 0 .626-.065.924-.196.299-.13.542-.345.728-.644.206-.299.308-.681.308-1.148 0-.821-.27-1.503-.812-2.044-.522-.541-1.194-1.13-2.016-1.764a78.62 78.62 0 0 1-1.708-1.428 7.213 7.213 0 0 1-1.288-1.568c-.336-.579-.504-1.232-.504-1.96 0-.84.224-1.55.672-2.128a3.988 3.988 0 0 1 1.764-1.288 6.349 6.349 0 0 1 2.38-.448Zm12.934 0c.784 0 1.465.103 2.044.308.597.187 1.027.373 1.288.56.635.43 1.027.15 1.176-.84h.588a43.329 43.329 0 0 0-.084 1.932c-.019.747-.028 1.745-.028 2.996h-.588a8.92 8.92 0 0 0-.532-2.044 4.052 4.052 0 0 0-1.148-1.652c-.485-.43-1.12-.644-1.904-.644-.541 0-.999.159-1.372.476-.373.299-.56.737-.56 1.316 0 .56.168 1.055.504 1.484.336.41.765.812 1.288 1.204.541.373 1.101.775 1.68 1.204.616.467 1.176.933 1.68 1.4.504.448.905.943 1.204 1.484.299.541.448 1.185.448 1.932 0 .84-.243 1.577-.728 2.212-.485.616-1.129 1.092-1.932 1.428-.784.336-1.661.504-2.632.504-.56 0-1.064-.056-1.512-.168a5.2 5.2 0 0 1-1.12-.42 20.588 20.588 0 0 0-.7-.308 5.448 5.448 0 0 0-.588-.28c-.187-.056-.355.01-.504.196-.131.187-.233.448-.308.784h-.588c.037-.597.065-1.325.084-2.184.019-.859.028-1.997.028-3.416h.588c.112 1.008.317 1.904.616 2.688.299.765.7 1.372 1.204 1.82.523.43 1.176.644 1.96.644.317 0 .625-.065.924-.196.299-.13.541-.345.728-.644.205-.299.308-.681.308-1.148 0-.821-.271-1.503-.812-2.044-.523-.541-1.195-1.13-2.016-1.764a76.29 76.29 0 0 1-1.708-1.428 7.184 7.184 0 0 1-1.288-1.568c-.336-.579-.504-1.232-.504-1.96 0-.84.224-1.55.672-2.128a3.988 3.988 0 0 1 1.764-1.288 6.349 6.349 0 0 1 2.38-.448Z"/>
            <circle cx="16.5" cy="19" r="15.25" stroke="#7A9CA5" stroke-width="2.5"/>
            <path stroke="#7A9CA5" stroke-linecap="round" stroke-linejoin="round" stroke-width="2.5" d="M24.766 14.684c.126 1.305-.347 2.613-1.313 3.637l-5.781 6.146-7.965.767-.67-6.964 5.792-6.14c.966-1.024 2.347-1.68 3.839-1.823l5.218.125.88 4.252ZM20 14.5l-15 15M21 20.5h-7M20 14.5h-7"/>
        </symbol>
        <symbol id="phone-icon" fill="none" viewBox="0 0 23 23">
            <path stroke="#7A9CA5" stroke-linecap="round" stroke-linejoin="round" stroke-width="2" d="M13.938 5a5 5 0 0 1 3.95 3.95L13.938 5Zm0-4a9 9 0 0 1 7.95 7.94L13.938 1Zm6.95 15.92v3a2 2 0 0 1-2.18 2 19.791 19.791 0 0 1-8.63-3.07 19.5 19.5 0 0 1-6-6 19.79 19.79 0 0 1-3.07-8.67A2 2 0 0 1 2.998 2h3a2 2 0 0 1 2 1.72c.127.96.362 1.903.7 2.81a2 2 0 0 1-.45 2.11l-1.27 1.27a16 16 0 0 0 6 6l1.27-1.27a2 2 0 0 1 2.11-.45c.907.339 1.85.573 2.81.7a2 2 0 0 1 1.72 2.03Z"/>
        </symbol>
        <symbol id="header-arrow-icon" fill="none" viewBox="0 0 17 16">
            <path stroke="#141414" stroke-linecap="round" stroke-linejoin="round" stroke-width="1.5" d="m4.888 6 4 4 4-4"/>
        </symbol>
        <symbol id="header-btn-icon" fill="none" viewBox="0 0 17 18">
            <path stroke="#fff" stroke-linecap="round" stroke-linejoin="round" stroke-width="2" d="M13.888 3h-10.5a1.5 1.5 0 0 0-1.5 1.5V15a1.5 1.5 0 0 0 1.5 1.5h10.5a1.5 1.5 0 0 0 1.5-1.5V4.5a1.5 1.5 0 0 0-1.5-1.5ZM11.638 1.5v3M5.638 1.5v3M1.888 7.5h13.5"/>
        </symbol>
        <symbol id="icon-linkedin-icon" viewBox="0 0 32 32">
            <path d="M8.56 30.933V11h-6.2v19.933h6.2zm-3.133-22.6c2 0 3.6-1.667 3.6-3.667 0-1.933-1.6-3.533-3.6-3.533-1.933 0-3.533 1.6-3.533 3.533 0 2 1.6 3.667 3.533 3.667zm26.267 22.6h.067V20c0-5.333-1.2-9.467-7.467-9.467-3 0-5 1.667-5.867 3.2h-.067V11h-5.933v19.933h6.2v-9.867c0-2.6.467-5.067 3.667-5.067s3.267 2.933 3.267 5.267v9.667h6.133z"/>
        </symbol>
        <symbol id="icon-twitter-icon" viewBox="0 0 42 32">
            <path d="M37.493 8v1.077C37.493 19.769 29.416 32 14.57 32c-4.615 0-8.846-1.308-12.385-3.616.615.077 1.231.154 1.923.154 3.769 0 7.231-1.308 10-3.462-3.538-.077-6.538-2.385-7.538-5.615.538.077 1 .154 1.538.154.692 0 1.462-.154 2.077-.308-3.692-.769-6.462-4-6.462-7.923v-.077c1.077.615 2.385.923 3.692 1A7.946 7.946 0 0 1 3.8 5.615c0-1.538.385-2.923 1.077-4.077 4 4.846 10 8.077 16.692 8.462a7.578 7.578 0 0 1-.231-1.846A8.075 8.075 0 0 1 29.415.077c2.308 0 4.384.923 5.923 2.538a17.08 17.08 0 0 0 5.077-2c-.615 1.923-1.846 3.462-3.538 4.462a15.122 15.122 0 0 0 4.615-1.231c-1.077 1.615-2.462 3-4 4.154z"/>
        </symbol>
        <symbol id="icon-facebook-icon" viewBox="0 0 20 32">
            <path d="M17.213 18h-4.688v14h-6.25V18H1.15v-5.75h5.125V7.812c0-5 3-7.813 7.563-7.813 2.188 0 4.5.438 4.5.438v4.938h-2.563c-2.5 0-3.25 1.5-3.25 3.125v3.75h5.563L17.213 18z"/>
        </symbol>
        <symbol id="icon-instagram-btn" viewBox="0 0 33 32">
            <path fill="none" stroke="#5c8692" stroke-width="1.164" d="M.873.582h30.836v30.836H.873V.582z" style="stroke:var(--color1, #5c8692)"/>
            <path fill="#fff" d="M16.582 12.572a2.498 2.498 0 0 1 2.483 2.483 2.483 2.483 0 0 1-2.483 2.483 2.47 2.47 0 0 1-2.483-2.483 2.483 2.483 0 0 1 2.483-2.483zm0 4.102a1.6 1.6 0 0 0 1.598-1.619c0-.885-.712-1.598-1.598-1.598-.907 0-1.619.713-1.619 1.598 0 .907.734 1.619 1.619 1.619zm3.152-4.189c0 .324-.259.583-.583.583s-.583-.259-.583-.583c0-.324.259-.583.583-.583s.583.259.583.583zm1.641.583c.043.799.043 3.195 0 3.994-.043.777-.216 1.447-.777 2.03-.561.561-1.252.734-2.029.777-.799.043-3.195.043-3.994 0-.777-.043-1.447-.216-2.03-.777-.561-.583-.734-1.252-.777-2.03-.043-.799-.043-3.195 0-3.994.043-.777.216-1.468.777-2.03.583-.561 1.252-.734 2.03-.777.799-.043 3.195-.043 3.994 0 .777.043 1.468.216 2.029.777s.734 1.252.777 2.03zm-1.036 4.837c.259-.626.194-2.137.194-2.85 0-.691.065-2.202-.194-2.85-.173-.41-.497-.756-.907-.907-.648-.259-2.159-.194-2.85-.194-.713 0-2.224-.065-2.85.194a1.664 1.664 0 0 0-.928.907c-.259.648-.194 2.159-.194 2.85 0 .713-.065 2.224.194 2.85.173.432.497.756.928.928.626.259 2.137.194 2.85.194.691 0 2.202.065 2.85-.194.41-.173.756-.497.907-.928z" style="fill:var(--color2, #fff)"/>
        </symbol>
        <symbol id="icon-linkedin-btn" viewBox="0 0 33 32">
            <path fill="none" stroke="#5c8692" stroke-width="1.164" d="M.873.582h30.836v30.836H.873V.582z" style="stroke:var(--color1, #5c8692)"/>
            <path fill="#fff" d="M14.045 19.2v-6.116h-1.902V19.2h1.902zm-.961-6.934c.614 0 1.105-.511 1.105-1.125 0-.593-.491-1.084-1.105-1.084-.593 0-1.084.491-1.084 1.084 0 .614.491 1.125 1.084 1.125zm8.059 6.934h.02v-3.355c0-1.636-.368-2.905-2.291-2.905-.92 0-1.534.511-1.8.982h-.02v-.839h-1.82v6.116h1.902v-3.027c0-.798.143-1.555 1.125-1.555s1.002.9 1.002 1.616v2.966h1.882z" style="fill:var(--color2, #fff)"/>
        </symbol>
        <symbol id="icon-twitter-btn" viewBox="0 0 33 32">
            <path fill="none" stroke="#5c8692" stroke-width="1.164" d="M.873.582h30.836v30.836H.873V.582z" style="stroke:var(--color1, #5c8692)"/>
            <path fill="#fff" d="M20.734 13.727a4.561 4.561 0 0 0 1.064-1.105 4.019 4.019 0 0 1-1.227.327 2.1 2.1 0 0 0 .941-1.186c-.409.245-.88.429-1.35.532a2.145 2.145 0 0 0-1.575-.675 2.148 2.148 0 0 0-2.148 2.148c0 .164.02.327.061.491a6.23 6.23 0 0 1-4.439-2.25 2.09 2.09 0 0 0-.286 1.084c0 .736.368 1.391.961 1.78a2.255 2.255 0 0 1-.982-.266v.02a2.15 2.15 0 0 0 1.718 2.107 2.394 2.394 0 0 1-.552.082c-.143 0-.266-.02-.409-.041a2.137 2.137 0 0 0 2.005 1.493 4.316 4.316 0 0 1-2.659.921c-.184 0-.348-.02-.511-.041a5.981 5.981 0 0 0 3.293.961c3.948 0 6.095-3.252 6.095-6.095v-.286z" style="fill:var(--color2, #fff)"/>
        </symbol>
        <symbol id="icon-facebook-btn" viewBox="0 0 33 32">
            <path fill="none" stroke="#5c8692" stroke-width="1.164" d="M.873.582h30.836v30.836H.873V.582z" style="stroke:var(--color1, #5c8692)"/>
            <path fill="#fff" d="m18.434 16.509.286-1.882H16.9V13.4c0-.532.245-1.023 1.064-1.023h.839v-1.616s-.757-.143-1.473-.143c-1.493 0-2.475.92-2.475 2.557v1.452h-1.677v1.882h1.677v4.582h2.046v-4.582h1.534z" style="fill:var(--color2, #fff)"/>
        </symbol>
        <symbol id="about-expert-icon" viewBox="0 0 49 73">
            <path fill="#7A9CA5" d="M35.989 29.318c-1.026-.665-2.885-1.062-4.977-1.062-2.091 0-3.952.397-4.975 1.062a1.093 1.093 0 1 0 1.192 1.835c.544-.353 1.925-.708 3.784-.708 1.86 0 3.24.355 3.784.708a1.09 1.09 0 0 0 1.514-.32 1.096 1.096 0 0 0-.322-1.515ZM30.566 44.096a1.095 1.095 0 0 0-1.545-.087c-.66.59-2.314 1.183-4.521 1.183-2.21 0-3.863-.595-4.522-1.183a1.094 1.094 0 1 0-1.458 1.633c1.22 1.09 3.455 1.74 5.98 1.74 2.525 0 4.76-.65 5.979-1.74.451-.404.49-1.094.087-1.546ZM21.91 34.45a1.093 1.093 0 0 0-1.545-.07c-.316.287-1.195.598-2.378.598-1.182 0-2.061-.31-2.378-.599a1.094 1.094 0 1 0-1.475 1.616c.804.734 2.244 1.171 3.853 1.171s3.05-.437 3.853-1.171c.446-.406.478-1.1.07-1.545ZM22.962 29.318c-1.025-.665-2.884-1.062-4.975-1.062-2.09 0-3.951.397-4.975 1.062a1.094 1.094 0 0 0 1.191 1.834c.544-.353 1.925-.709 3.784-.709 1.86 0 3.24.356 3.784.709a1.093 1.093 0 1 0 1.191-1.834ZM34.935 34.45a1.093 1.093 0 0 0-1.545-.07c-.317.287-1.196.598-2.378.598-1.183 0-2.062-.31-2.378-.599a1.094 1.094 0 1 0-1.475 1.616c.804.734 2.244 1.171 3.853 1.171s3.049-.437 3.853-1.171c.447-.406.478-1.1.07-1.545Z"/>
            <path fill="#7A9CA5" d="M45.706 65.065c-1.932-1.642-4.568-2.547-7.42-2.547-3.753 0-6.349-.836-7.442-1.271v-4.961a18.74 18.74 0 0 0 11.627-12.522c3.523-.441 6.261-3.46 6.261-7.094 0-3.36-2.377-6.247-5.572-6.975v-2.423c1.265-4.431 1.186-8.783.892-11.668a35.479 35.479 0 0 0-.603-3.85c-.17-.786-.28-1.21-.362-1.457a1.044 1.044 0 0 0-.067-.19c-1.212-2.569-3.368-4.758-6.127-6.4a1.12 1.12 0 0 0-.177-.104C33.326 1.636 29.049.49 24.5.49c-3.582 0-7.085.709-10.13 2.049a1.095 1.095 0 0 0 .882 2.004c2.769-1.22 5.967-1.863 9.248-1.863 3.63 0 7.052.78 9.89 2.147-1.33 1.145-2.914 2.247-4.807 3.345a1.094 1.094 0 1 0 1.1 1.895c2.292-1.33 4.172-2.678 5.725-4.102 1.898 1.243 3.41 2.79 4.372 4.564l-.117.18-.08.12c-2.396 3.49-7.481 6.834-14.837 9.758-.044.017-.09.034-.133.052-.16.063-.32.126-.482.188-7.317 2.827-14.78 4.487-17.41 5.026-.597-2.423-.786-4.814-.764-6.95.91-.182 1.815-.444 2.7-.698.693-.202 1.41-.408 2.102-.569l.034-.008c4.498-1.191 8.925-2.8 14.355-5.217a1.093 1.093 0 1 0-.89-1.998c-5.312 2.365-9.633 3.937-14.008 5.096-.744.173-1.485.386-2.2.593-.686.198-1.347.388-1.994.54.238-3.057.82-5.254.937-5.674.758-1.57 1.956-2.998 3.563-4.247a1.095 1.095 0 0 0-1.341-1.73c-1.908 1.483-3.334 3.204-4.239 5.12-.022.048-.042.098-.057.15-.104.344-2.513 8.502-.083 17.015V29.7c-3.192.724-5.57 3.613-5.57 6.972 0 3.634 2.739 6.653 6.26 7.095 1.627 5.81 6.002 10.48 11.627 12.521v4.961c-1.095.436-3.69 1.273-7.442 1.273-2.852 0-5.486.904-7.42 2.547-1.95 1.656-3.025 3.905-3.025 6.328 0 .605.489 1.094 1.094 1.094h46.28c.604 0 1.093-.49 1.093-1.094 0-2.423-1.075-4.672-3.027-6.331ZM42.98 41.326c.119-.858.18-1.724.18-2.589v-6.77c1.97.667 3.384 2.546 3.384 4.704a4.978 4.978 0 0 1-3.578 4.766c.006-.036.01-.074.014-.11ZM2.454 36.671c0-2.158 1.414-4.037 3.383-4.703v6.77c0 .865.062 1.73.18 2.588.006.037.009.075.014.111a4.98 4.98 0 0 1-3.577-4.766Zm38.733-23.076.076-.086c.07-.079.137-.157.203-.236l.04-.045c.496 2.766 1.002 7.63-.23 12.624-2.178-.446-7.678-1.658-13.646-3.668 6.253-2.587 10.791-5.462 13.558-8.59ZM8.29 41.678a16.36 16.36 0 0 1-.263-2.94V28.022c.01-.001.02-.004.032-.007 1.695-.338 3.38-.733 5.056-1.152 1.766-.441 3.522-.92 5.267-1.438 1.144-.34 2.283-.698 3.413-1.076l.062-.021h5.288c6.101 2.04 11.705 3.264 13.829 3.693v10.714c0 .972-.086 1.949-.258 2.907l-.005.033c-1.12 6.193-5.714 11.193-11.683 12.901l-.03.009a16.66 16.66 0 0 1-4.498.624c-1.515 0-3.045-.204-4.5-.624-.008-.002-.013-.005-.02-.006-5.973-1.707-10.57-6.708-11.69-12.902ZM2.558 70.3c.26-1.352 1.002-2.59 2.151-3.568 1.537-1.307 3.67-2.025 6.002-2.025 5.632 0 8.913-1.709 9.05-1.782.357-.19.58-.561.58-.966v-5.026c.003.418 3.936.466 4.157.466a18.72 18.72 0 0 0 4.157-.466v5.027c0 .405.224.777.58.967.137.073 3.418 1.781 9.05 1.781 2.333 0 4.465.719 6.002 2.025 1.15.978 1.891 2.217 2.151 3.568H2.558V70.3Z"/>
        </symbol>
        <symbol id="about-services-icon" viewBox="0 0 73 75">
            <path fill="#7A9CA5" d="M11.42 58.86a1.417 1.417 0 0 1-1.844.796c-5.43-2.157-8.724-4.928-9.53-8.012a1.42 1.42 0 0 1 1.015-1.735 1.418 1.418 0 0 1 1.732 1.017c.559 2.14 3.34 4.303 7.832 6.088a1.421 1.421 0 0 1 .794 1.845Zm4.823-14.889a1.416 1.416 0 0 0 1.999-.16 1.424 1.424 0 0 0-.16-2.005 34.876 34.876 0 0 1-2.047-1.893c-6.237-6.25-9.503-14.195-8.513-20.527 2.661-.417 5.606-.08 8.59.92.126.065.264.113.408.14 3.971 1.408 7.995 3.973 11.486 7.471.878.88 1.715 1.815 2.487 2.775a1.418 1.418 0 0 0 1.996.215c.61-.492.706-1.388.214-2a37.678 37.678 0 0 0-2.69-3.002c-3.588-3.594-7.725-6.288-11.885-7.877-.1-2.572.334-4.92 1.255-6.77 2.343.51 4.768 1.939 6.948 4.102a35.046 35.046 0 0 0-.722 3.756 1.419 1.419 0 1 0 2.812.386c.954-6.968 3.974-12.819 8.15-15.874 4.175 3.055 7.195 8.904 8.149 15.87a1.419 1.419 0 1 0 2.812-.385 34.894 34.894 0 0 0-.722-3.753c2.18-2.163 4.607-3.593 6.948-4.103.92 1.85 1.356 4.199 1.255 6.771-4.16 1.591-8.297 4.284-11.884 7.877a37.658 37.658 0 0 0-2.691 3.002 1.425 1.425 0 0 0 .214 2c.61.493 1.505.397 1.996-.215a35.244 35.244 0 0 1 2.487-2.775c3.491-3.498 7.513-6.065 11.485-7.471.145-.027.284-.075.41-.14 2.983-.998 5.928-1.337 8.589-.92.99 6.334-2.276 14.278-8.513 20.527a34.94 34.94 0 0 1-2.047 1.893 1.426 1.426 0 0 0-.162 2.005 1.42 1.42 0 0 0 2.001.162 37.725 37.725 0 0 0 2.214-2.048c7.21-7.222 10.78-16.67 9.102-24.067a1.421 1.421 0 0 0-1.07-1.072c-2.868-.655-6.045-.514-9.283.327-.03-3.132-.775-5.984-2.155-8.18a1.42 1.42 0 0 0-1.364-.653c-2.85.33-5.8 1.752-8.45 4.055C44.06 7.202 41.058 3.062 37.325.709a1.415 1.415 0 0 0-1.511 0c-3.732 2.353-6.736 6.493-8.568 11.626-2.65-2.303-5.595-3.725-8.45-4.055a1.418 1.418 0 0 0-1.362.654c-1.378 2.195-2.121 5.047-2.152 8.179-3.235-.841-6.414-.982-9.283-.327-.532.12-.947.538-1.07 1.072-1.68 7.396 1.893 16.843 9.103 24.067a38.27 38.27 0 0 0 2.212 2.046Zm-.672 11.121a1.422 1.422 0 0 0-.871-1.811c-4.283-1.5-6.84-3.397-6.84-5.072 0-1.082 1.115-2.305 3.137-3.445a1.422 1.422 0 0 0-1.39-2.478C6.563 44 5.022 45.992 5.022 48.211c0 3.072 3.022 5.753 8.74 7.758.154.055.312.08.468.08a1.423 1.423 0 0 0 1.34-.957Zm42.59-1.712a1.423 1.423 0 0 0 .456 2.77c.15 0 .305-.025.456-.076 5.92-2.014 9.05-4.734 9.05-7.865 0-2.138-1.436-4.07-4.27-5.743a1.416 1.416 0 0 0-1.942.503 1.423 1.423 0 0 0 .502 1.946c1.852 1.093 2.872 2.263 2.872 3.292-.001 1.696-2.73 3.678-7.124 5.173Zm-7.514 10.394c0 1.44-1.17 2.614-2.608 2.614a1.42 1.42 0 0 0-1.42 1.422 1.42 1.42 0 0 0 1.42 1.422c3.003 0 5.446-2.448 5.446-5.458a1.42 1.42 0 1 0-2.838 0Zm21.29-13.865a1.419 1.419 0 0 0-1.73 1.017c-.56 2.142-3.34 4.303-7.83 6.088a1.424 1.424 0 0 0 .522 2.745c.174 0 .352-.032.524-.102 5.43-2.158 8.726-4.93 9.531-8.013a1.426 1.426 0 0 0-1.016-1.735Zm-25.218.617c0 .775-.628 1.404-1.401 1.404a1.42 1.42 0 0 0-1.42 1.422 1.42 1.42 0 0 0 1.42 1.422 4.249 4.249 0 0 0 4.24-4.248 1.42 1.42 0 1 0-2.839 0Zm-4.055-9.083h.37a1.42 1.42 0 0 0 1.42-1.422 1.42 1.42 0 0 0-1.42-1.422h-.37a1.421 1.421 0 0 0 0 2.844Zm14.66 16.305a10.496 10.496 0 0 1 1.989 6.163c0 5.833-4.735 10.579-10.557 10.579H24.39c-5.82 0-10.557-4.745-10.557-10.577 0-3.87 2.14-7.411 5.46-9.256a8.558 8.558 0 0 1 4.983-11.505 6.57 6.57 0 0 1-1.164-3.74c0-3.636 2.952-6.594 6.58-6.594h13.76c3.628 0 6.58 2.958 6.58 6.594 0 3.635-2.952 6.593-6.58 6.593h-13.76a6.567 6.567 0 0 1-2.498-.492 1.772 1.772 0 0 1-.097.003c-3.137 0-5.688 2.556-5.688 5.7 0 1.174.357 2.27.969 3.178.048.058.092.12.131.186a5.683 5.683 0 0 0 4.588 2.334h18.95a5.695 5.695 0 0 0 3.622-10.083 1.425 1.425 0 0 1-.183-2.003 1.418 1.418 0 0 1 1.999-.185 8.537 8.537 0 0 1 3.088 6.57c0 4.711-3.824 8.544-8.525 8.544H27.098a8.494 8.494 0 0 1-6.232-2.72c-2.542 1.317-4.194 3.97-4.194 6.874 0 4.265 3.463 7.735 7.719 7.735h24.365c4.255 0 7.718-3.47 7.718-7.733a7.655 7.655 0 0 0-1.453-4.5 1.426 1.426 0 0 1 .321-1.985 1.417 1.417 0 0 1 1.982.32ZM25.952 39.412a3.75 3.75 0 0 0 3.74 3.749h13.761a3.75 3.75 0 0 0 0-7.498h-13.76a3.75 3.75 0 0 0-3.741 3.749Z"/>
        </symbol>
        <symbol id="about-genuine-icon" viewBox="0 0 67 79">
            <path fill="#7A9CA5" d="M12.86 32.002a1.542 1.542 0 1 0 0-3.085 1.542 1.542 0 0 0 0 3.085Z"/>
            <path fill="#7A9CA5" d="M65.015 28.843c-.97-1.116-2.406-1.754-3.937-1.754H48.604v-2.64a7.022 7.022 0 0 0-7.014-7.015h-1.208v-.196a5.15 5.15 0 0 0-4.928-5.138V9.47c1.146-.269 2.14-.654 2.977-1.162 1.555-.943 2.228-2.083 2.52-2.872.648-1.763-.034-3.783-1.555-4.599A2.881 2.881 0 0 0 38.03.49c-1.032 0-2.001.573-2.586 1.51-.296.194-1.426.777-4.308.777H23.96c-3.647 0-5.913 2.493-5.913 6.508 0 1.967 1.418 3.569 3.16 3.569 1.553 0 2.849-1.271 3.112-2.94h3.448V12.1a5.15 5.15 0 0 0-4.927 5.138v.196h-1.21a7.022 7.022 0 0 0-7.014 7.014v.104h-4.52a3.642 3.642 0 0 0-3.637 3.637v6.874a5.093 5.093 0 0 0-1.792 3.88v2.265a8.795 8.795 0 0 0-3.675 6.575 88.475 88.475 0 0 0-.162 3.756 1.188 1.188 0 1 0 2.377.053c.028-1.263.081-2.49.157-3.652a6.425 6.425 0 0 1 3.697-5.39c.015-.005.029-.013.043-.02a6.431 6.431 0 0 1 2.637-.574h6.236c.906 0 1.813.201 2.637.575l.043.02c2.08.964 3.544 3.099 3.697 5.39.12 1.805.18 3.66.18 5.512 0 .876-.025 1.75-.043 2.626-.002.03-.002.06-.003.093-.011.309-.872 1.162-1.052 1.482a8.403 8.403 0 0 0-.711 1.655c-.403 1.307-.488 2.686-.512 4.046a25.549 25.549 0 0 0 .623 6.093 5.185 5.185 0 0 1-4.899 3.433H9.78c-2.449 0-4.594-1.746-5.105-4.152-.809-3.817-1.293-8.003-1.441-12.443a1.19 1.19 0 0 0-2.377.079c.152 4.579.655 8.905 1.492 12.858.74 3.498 3.867 6.038 7.431 6.038h6.159a7.545 7.545 0 0 0 5.825-2.715 21.52 21.52 0 0 0 3.014 5.496c.226.294.575.468.945.468h22.444c.37 0 .72-.174.944-.468.363-.474.705-.967 1.026-1.475h10.226a1.19 1.19 0 0 0 1.19-1.19v-9.82l2.824-20.396a1.189 1.189 0 1 0-2.356-.326L59.763 61.15h-6.217a9.214 9.214 0 0 0-.528-2.289 8.75 8.75 0 0 0-4.755-4.968l-.043-.313-2.962-21.4a2.319 2.319 0 0 1-.02-.23v-.012c-.021-.77.392-1.463.992-1.918.483-.366 1.117-.552 1.719-.552h13.13c.843 0 1.624.341 2.144.937.442.508.637 1.138.549 1.774l-1.093 7.894a1.189 1.189 0 1 0 2.356.327l1.092-7.897c.183-1.327-.211-2.628-1.112-3.661ZM23.957 7.534c-.548 0-1.23.063-1.624.497-.31.34-.346.817-.346 1.254 0 .701-.411 1.19-.782 1.19-.37 0-.781-.489-.781-1.19 0-3.593 2.213-4.128 3.533-4.128h7.179c1.109 0 2.26-.07 3.363-.308.949-.205 2.01-.51 2.709-1.223.254-.26.378-.754.821-.754.08 0 .157.021.238.064.42.225.7.992.446 1.68-.204.555-1.09 2.123-4.617 2.702l-.026.003c-.969.159-1.953.215-2.934.215l-7.179-.002Zm9.115 2.301v2.257h-2.927V9.913c.003.052 2.927-.053 2.927-.078Zm-5.09 4.636h7.254A2.768 2.768 0 0 1 38 17.235v.196H25.217v-.196a2.768 2.768 0 0 1 2.764-2.764ZM8.837 28.194v-.006c0-.694.564-1.258 1.257-1.258h5.527c.027 0 .053.003.08.005l.015.002c1.394.102 1.162 1.724 1.162 2.7V33.923a5.147 5.147 0 0 0-.93-.085H9.767c-.288 0-.625.084-.928.074-.09-1.894-.002-3.82-.002-5.718ZM18.673 40c0-.346-2.362-.425-2.697-.425H9.743c-.912 0-1.828.144-2.697.425v-1.06c0-1.471 1.253-2.725 2.725-2.725h6.18c.895 0 1.759.463 2.258 1.203.522.773.464 1.693.464 2.582Zm33.299 33.063.042-.135a30.88 30.88 0 0 0 1.052-3.565 25.48 25.48 0 0 0 .612-5.836h5.496v10.657h-7.737c.204.002.43-.774.535-1.121Zm-1.277-13.59h-5.617a1.19 1.19 0 1 0 0 2.38h6.14l.013.153c.37 4.928-.773 10.066-3.665 14.124h-21.24c-1.46-2.045-2.515-4.445-3.126-7.035a23.277 23.277 0 0 1-.529-7.241H40.32a1.19 1.19 0 1 0 0-2.38H23.192a6.352 6.352 0 0 1 1.32-1.978 6.52 6.52 0 0 1 4.6-1.936h15.666c.544 0 1.08.07 1.597.206 1.904.495 3.54 1.858 4.32 3.708Zm-4.471-32.102c0-.008-1.419.736-1.554.842-2.335 1.86-1.733 4.58-1.378 7.147l2.475 17.877c-.008-.002-.015-.002-.025-.002a9.08 9.08 0 0 0-.41-.035l-.09-.006a9.437 9.437 0 0 0-.466-.014H29.112a8.87 8.87 0 0 0-3.282.63c-.125.05-.919.326-.92.43.003-.266.003-.528.003-.79 0-1.905-.063-3.812-.186-5.67a8.874 8.874 0 0 0-2.282-5.35 8.566 8.566 0 0 0-.68-.67c-.09-.08-.714-.482-.714-.566v-2.256a5.156 5.156 0 0 0-1.792-3.883v-6.869c0-.085-.004-.17-.01-.253l-.005-.052a3.643 3.643 0 0 0-2.25-3.063v-.373a4.641 4.641 0 0 1 4.635-4.635h19.958a4.641 4.641 0 0 1 4.635 4.635c.002.002.002 2.926.002 2.926Z"/>
        </symbol>
        <symbol id="rate-half-icon" viewBox="0 0 17 18">
            <path fill="#fff" d="m15.635 7.137-4.908-.419L8.81 2.25 6.891 6.725l-4.908.412 3.727 3.192-1.12 4.746 4.22-2.518 4.218 2.518-1.113-4.746 3.72-3.192ZM8.81 11.295V5.017l1.167 2.727 2.99.257L10.7 9.945l.683 2.889-2.574-1.54Z"/>
        </symbol>
        <symbol id="rate-star-icon" viewBox="0 0 18 18">
            <path fill="#fff" d="m8.955 12.557 4.218 2.518-1.12-4.746 3.728-3.192-4.908-.412L8.955 2.25 7.037 6.725l-4.908.412 3.727 3.192-1.12 4.746 4.219-2.518Z"/>
        </symbol>
        <symbol id="reviews-icon" viewBox="0 0 71 56">
            <path fill="#fff" d="M70.012 28 42.376 55.636V.364h27.636V28ZM27.636 28 0 55.636V.364h27.636V28Z"/>
        </symbol>
        <symbol id="benefits-chek-icon" viewBox="0 0 90 90">
            <path fill="#fff" stroke="#1E2C30" stroke-dasharray="10 10" d="M.5.5h89v89H.5z"/>
            <path fill="#5C8692" d="M5 5h80v80H5z"/>
            <path fill="none" stroke="#fff" stroke-linecap="round" stroke-linejoin="round" stroke-width="3" d="m34 44.4 10 9m17-20-17 20"/>
        </symbol>
        <symbol id="discount-circle-icon" fill="none" viewBox="0 0 30 7">
            <circle cx="27" cy="3.5" r="3" fill="#5C8692"/>
            <circle cx="15" cy="3.5" r="3" fill="#5C8692"/>
            <circle cx="3" cy="3.5" r="3" fill="#5C8692"/>
        </symbol>
        <symbol id="discroption-rate-icon" fill="none" viewBox="0 0 99 50">
            <path fill="#fff" d="M15.925 49.25c-2.362 0-4.583-.487-6.663-1.462a16.026 16.026 0 0 1-5.33-4.063C2.437 41.992 1.365 39.977.715 37.68l8.515-2.275c.282 1.105.78 2.058 1.495 2.86a8.24 8.24 0 0 0 2.535 1.885c.975.433 1.972.65 2.99.65 1.343 0 2.567-.325 3.672-.975a7.224 7.224 0 0 0 2.665-2.633c.672-1.105 1.008-2.329 1.008-3.672s-.336-2.568-1.008-3.673a7.224 7.224 0 0 0-2.665-2.632c-1.105-.65-2.329-.975-3.672-.975-1.647 0-2.99.282-4.03.845-1.04.542-1.82 1.062-2.34 1.56L2.405 26.37l1.43-24.895H29.38V9.73H8.71l3.12-2.925-.975 16.055-1.495-1.82a11.186 11.186 0 0 1 3.997-2.08c1.495-.433 2.893-.65 4.193-.65 2.947 0 5.536.66 7.767 1.983 2.254 1.3 4.009 3.098 5.265 5.395 1.279 2.274 1.918 4.885 1.918 7.832s-.77 5.612-2.308 7.995c-1.538 2.362-3.564 4.247-6.077 5.655-2.513 1.387-5.243 2.08-8.19 2.08ZM54.396 49.25c-3.467 0-6.5-.726-9.1-2.178a15.468 15.468 0 0 1-6.077-6.077c-1.452-2.6-2.178-5.633-2.178-9.1v-14.04c0-3.467.726-6.5 2.178-9.1a15.467 15.467 0 0 1 6.077-6.078C47.896 1.227 50.93.5 54.396.5c3.467 0 6.5.726 9.1 2.178a15.467 15.467 0 0 1 6.078 6.077c1.451 2.6 2.177 5.633 2.177 9.1v14.04c0 3.467-.726 6.5-2.177 9.1a15.468 15.468 0 0 1-6.078 6.078c-2.6 1.451-5.633 2.177-9.1 2.177Zm0-8.385c1.56 0 2.968-.368 4.225-1.105a8.243 8.243 0 0 0 2.99-2.99c.737-1.257 1.105-2.665 1.105-4.225V17.14c0-1.56-.368-2.968-1.105-4.225a8.243 8.243 0 0 0-2.99-2.99c-1.257-.737-2.665-1.105-4.225-1.105-1.56 0-2.968.368-4.225 1.105a8.243 8.243 0 0 0-2.99 2.99c-.736 1.257-1.105 2.665-1.105 4.225v15.405c0 1.56.368 2.968 1.105 4.225a8.243 8.243 0 0 0 2.99 2.99c1.257.737 2.665 1.105 4.225 1.105ZM77.24 48.275l-1.5-1.5 20.145-20.1 1.5 1.485L77.24 48.275Zm15.645.45c-.99 0-1.895-.24-2.715-.72a5.686 5.686 0 0 1-1.95-1.95 5.221 5.221 0 0 1-.735-2.73c0-.98.25-1.88.75-2.7a5.73 5.73 0 0 1 1.98-1.965c.82-.49 1.71-.735 2.67-.735.99 0 1.895.245 2.715.735.82.48 1.47 1.13 1.95 1.95.49.81.735 1.715.735 2.715 0 1-.245 1.91-.735 2.73a5.52 5.52 0 0 1-1.95 1.95c-.82.48-1.725.72-2.715.72Zm0-1.995a3.25 3.25 0 0 0 1.695-.465c.52-.31.935-.72 1.245-1.23.31-.52.465-1.09.465-1.71a3.2 3.2 0 0 0-.465-1.695 3.535 3.535 0 0 0-1.245-1.245 3.25 3.25 0 0 0-1.695-.465c-.62 0-1.19.155-1.71.465-.51.31-.925.725-1.245 1.245a3.2 3.2 0 0 0-.465 1.695c0 .62.155 1.19.465 1.71.32.51.735.92 1.245 1.23.52.31 1.09.465 1.71.465ZM80.24 37.025c-.99 0-1.895-.24-2.715-.72a5.645 5.645 0 0 1-1.965-1.95c-.48-.82-.72-1.73-.72-2.73 0-.98.25-1.88.75-2.7a5.73 5.73 0 0 1 1.98-1.965c.82-.49 1.71-.735 2.67-.735.99 0 1.89.245 2.7.735a5.48 5.48 0 0 1 1.965 1.95c.49.81.735 1.715.735 2.715 0 1-.245 1.91-.735 2.73a5.645 5.645 0 0 1-1.965 1.95c-.81.48-1.71.72-2.7.72Zm0-1.995a3.2 3.2 0 0 0 1.695-.465c.52-.31.935-.72 1.245-1.23.31-.52.465-1.09.465-1.71a3.2 3.2 0 0 0-.465-1.695 3.535 3.535 0 0 0-1.245-1.245 3.2 3.2 0 0 0-1.695-.465c-.62 0-1.19.155-1.71.465-.51.31-.92.725-1.23 1.245a3.2 3.2 0 0 0-.465 1.695c0 .62.155 1.19.465 1.71.31.51.72.92 1.23 1.23.52.31 1.09.465 1.71.465Z"/>
        </symbol>
        <symbol id="form-person-icon" viewBox="0 0 24 24">
            <path stroke-linecap="round" stroke-linejoin="round" stroke-width="2" d="M20 21v-2a4 4 0 0 0-4-4H8a4 4 0 0 0-4 4v2M12 11a4 4 0 1 0 0-8 4 4 0 0 0 0 8Z"/>
        </symbol>
        <symbol id="form-email-icon" viewBox="0 0 24 24">
            <path stroke-linecap="round" stroke-linejoin="round" stroke-width="2" d="M4 4h16c1.1 0 2 .9 2 2v12c0 1.1-.9 2-2 2H4c-1.1 0-2-.9-2-2V6c0-1.1.9-2 2-2Z"/>
            <path stroke-linecap="round" stroke-linejoin="round" stroke-width="2" d="m22 6-10 7L2 6"/>
        </symbol>
        <symbol id="form-phone-icon" viewBox="0 0 24 24">
            <path stroke-linecap="round" stroke-linejoin="round" stroke-width="2" d="M22 16.92v3a1.998 1.998 0 0 1-2.18 2 19.791 19.791 0 0 1-8.63-3.07 19.5 19.5 0 0 1-6-6 19.79 19.79 0 0 1-3.07-8.67A2 2 0 0 1 4.11 2h3a2 2 0 0 1 2 1.72c.127.96.362 1.903.7 2.81a2 2 0 0 1-.45 2.11L8.09 9.91a16.001 16.001 0 0 0 6 6l1.27-1.27a2 2 0 0 1 2.11-.45c.908.339 1.85.574 2.81.7A2 2 0 0 1 22 16.92Z"/>
        </symbol>
        <symbol id="form-service-icon" viewBox="0 0 24 24">
            <path stroke-linecap="round" stroke-linejoin="round" stroke-width="2" d="M2 3h6a4 4 0 0 1 4 4v14a3 3 0 0 0-3-3H2V3ZM22 3h-6a4 4 0 0 0-4 4v14a3 3 0 0 1 3-3h7V3Z"/>
        </symbol>
        <symbol id="form-textarea-icon" viewBox="0 0 24 23">
            <path stroke-linecap="round" stroke-linejoin="round" stroke-width="2" d="M11.042 3.834H4.334a1.917 1.917 0 0 0-1.917 1.917v13.416a1.917 1.917 0 0 0 1.917 1.917H17.75a1.917 1.917 0 0 0 1.917-1.917V12.46"/>
            <path stroke-linecap="round" stroke-linejoin="round" stroke-width="2" d="M18.23 2.396a2.033 2.033 0 1 1 2.875 2.875L12 14.375l-3.833.959.958-3.834 9.105-9.104Z"/>
        </symbol>

        <symbol id="footer-facebook-icon" viewBox="0 0 56 55">
            <rect x="1.5" y="1" width="53" height="53" stroke="#5C8692" stroke-width="2"/>
            <path d="M31.6836 28.375L32.1758 25.1406H29.0469V23.0312C29.0469 22.1172 29.4688 21.2734 30.875 21.2734H32.3164V18.4961C32.3164 18.4961 31.0156 18.25 29.7852 18.25C27.2188 18.25 25.5312 19.832 25.5312 22.6445V25.1406H22.6484V28.375H25.5312V36.25H29.0469V28.375H31.6836Z" fill="white"/>
        </symbol>
        <symbol id="footer-twitter-icon" viewBox="0 0 56 55">
            <rect x="1.5" y="1" width="53" height="53" stroke="#5C8692" stroke-width="2"/>
            <path d="M35.6367 23.5938C36.3398 23.0664 36.9727 22.4336 37.4648 21.6953C36.832 21.9766 36.0938 22.1875 35.3555 22.2578C36.1289 21.8008 36.6914 21.0977 36.9727 20.2188C36.2695 20.6406 35.4609 20.957 34.6523 21.1328C33.9492 20.3945 33 19.9727 31.9453 19.9727C29.9062 19.9727 28.2539 21.625 28.2539 23.6641C28.2539 23.9453 28.2891 24.2266 28.3594 24.5078C25.3008 24.332 22.5586 22.8555 20.7305 20.6406C20.4141 21.168 20.2383 21.8008 20.2383 22.5039C20.2383 23.7695 20.8711 24.8945 21.8906 25.5625C21.293 25.5273 20.6953 25.3867 20.2031 25.1055V25.1406C20.2031 26.9336 21.4688 28.4102 23.1562 28.7617C22.875 28.832 22.5234 28.9023 22.207 28.9023C21.9609 28.9023 21.75 28.8672 21.5039 28.832C21.9609 30.3086 23.332 31.3633 24.9492 31.3984C23.6836 32.3828 22.1016 32.9805 20.3789 32.9805C20.0625 32.9805 19.7812 32.9453 19.5 32.9102C21.1172 33.9648 23.0508 34.5625 25.1602 34.5625C31.9453 34.5625 35.6367 28.9727 35.6367 24.0859C35.6367 23.9102 35.6367 23.7695 35.6367 23.5938Z" fill="white"/>
        </symbol>
        <symbol id="footer-linkedin-icon" viewBox="0 0 56 55">
            <rect x="1.5" y="1" width="53" height="53" stroke="#5C8692" stroke-width="2"/>
            <path d="M24.1406 33V22.4883H20.8711V33H24.1406ZM22.4883 21.082C23.543 21.082 24.3867 20.2031 24.3867 19.1484C24.3867 18.1289 23.543 17.2852 22.4883 17.2852C21.4688 17.2852 20.625 18.1289 20.625 19.1484C20.625 20.2031 21.4688 21.082 22.4883 21.082ZM36.3398 33H36.375V27.2344C36.375 24.4219 35.7422 22.2422 32.4375 22.2422C30.8555 22.2422 29.8008 23.1211 29.3438 23.9297H29.3086V22.4883H26.1797V33H29.4492V27.7969C29.4492 26.4258 29.6953 25.125 31.3828 25.125C33.0703 25.125 33.1055 26.6719 33.1055 27.9023V33H36.3398Z" fill="white"/>
        </symbol>
        <symbol id="footer-instagram-icon" width="56" height="55" viewBox="0 0 56 55">
            <rect x="1.5" y="1" width="53" height="53" stroke="#5C8692" stroke-width="2"/>
            <path d="M28 22.6074C25.625 22.6074 23.7324 24.5371 23.7324 26.875C23.7324 29.25 25.625 31.1426 28 31.1426C30.3379 31.1426 32.2676 29.25 32.2676 26.875C32.2676 24.5371 30.3379 22.6074 28 22.6074ZM28 29.6582C26.4785 29.6582 25.2168 28.4336 25.2168 26.875C25.2168 25.3535 26.4414 24.1289 28 24.1289C29.5215 24.1289 30.7461 25.3535 30.7461 26.875C30.7461 28.4336 29.5215 29.6582 28 29.6582ZM33.418 22.459C33.418 21.9023 32.9727 21.457 32.416 21.457C31.8594 21.457 31.4141 21.9023 31.4141 22.459C31.4141 23.0156 31.8594 23.4609 32.416 23.4609C32.9727 23.4609 33.418 23.0156 33.418 22.459ZM36.2383 23.4609C36.1641 22.125 35.8672 20.9375 34.9023 19.9727C33.9375 19.0078 32.75 18.7109 31.4141 18.6367C30.041 18.5625 25.9219 18.5625 24.5488 18.6367C23.2129 18.7109 22.0625 19.0078 21.0605 19.9727C20.0957 20.9375 19.7988 22.125 19.7246 23.4609C19.6504 24.834 19.6504 28.9531 19.7246 30.3262C19.7988 31.6621 20.0957 32.8125 21.0605 33.8145C22.0625 34.7793 23.2129 35.0762 24.5488 35.1504C25.9219 35.2246 30.041 35.2246 31.4141 35.1504C32.75 35.0762 33.9375 34.7793 34.9023 33.8145C35.8672 32.8125 36.1641 31.6621 36.2383 30.3262C36.3125 28.9531 36.3125 24.834 36.2383 23.4609ZM34.457 31.7734C34.1973 32.5156 33.6035 33.0723 32.8984 33.3691C31.7852 33.8145 29.1875 33.7031 28 33.7031C26.7754 33.7031 24.1777 33.8145 23.1016 33.3691C22.3594 33.0723 21.8027 32.5156 21.5059 31.7734C21.0605 30.6973 21.1719 28.0996 21.1719 26.875C21.1719 25.6875 21.0605 23.0898 21.5059 21.9766C21.8027 21.2715 22.3594 20.7148 23.1016 20.418C24.1777 19.9727 26.7754 20.084 28 20.084C29.1875 20.084 31.7852 19.9727 32.8984 20.418C33.6035 20.6777 34.1602 21.2715 34.457 21.9766C34.9023 23.0898 34.791 25.6875 34.791 26.875C34.791 28.0996 34.9023 30.6973 34.457 31.7734Z" fill="white"/>
        </symbol>
        <symbol id="header-accent-icon" viewBox="0 0 22 22">
            <path d="M22 11L19.56 8.22004L19.9 4.54004L16.29 3.72004L14.4 0.540039L11 2.00004L7.6 0.540039L5.71 3.72004L2.1 4.53004L2.44 8.21004L0 11L2.44 13.78L2.1 17.47L5.71 18.29L7.6 21.47L11 20L14.4 21.46L16.29 18.28L19.9 17.46L19.56 13.78L22 11ZM12 16H10V14H12V16ZM12 12H10V6.00004H12V12Z" fill="#5C8692"/>
        </symbol>



    </defs>
</svg>
